<svg width="218" height="120" viewBox="0 0 218 120" fill="none" xmlns="http://www.w3.org/2000/svg">
<g clip-path="url(#clip0_4346_7615)">
<path d="M166.694 0H97.037C87.3375 0.538336 82.7854 4.52692 82.7854 13.0506C82.7854 20.3263 87.3878 23.9641 96.4502 23.9641H125.197C148.2 23.9641 158.118 31.3785 158.118 52.3573C158.184 56.4375 157.618 60.5042 156.441 64.4209H166.694L217.396 32.1941L166.694 0Z" fill="#005595"/>
<path d="M135.382 53.2218C135.382 44.2496 130.495 41.6068 119.999 41.6068H94.371C70.7888 41.6068 59.9994 32.9364 59.9994 12.7977C59.918 8.46804 60.5202 4.15185 61.7851 0H51.3646L0.662247 32.2186L51.3646 64.4454H122.07C131.115 63.8907 135.382 60.9543 135.382 53.2218Z" fill="#8CC63F"/>
<path d="M0.68753 92.6593C1.85194 93.2852 3.15516 93.6267 4.48517 93.6544C6.05286 93.6544 6.88281 92.9692 6.88281 91.917C6.88281 90.8648 6.16184 90.351 4.36781 89.6577C1.85281 88.7278 0.218065 87.2596 0.218065 84.9268C0.218065 82.1862 2.36419 80.0981 5.93549 80.0981C7.26868 80.074 8.58923 80.3533 9.79182 80.9138L9.02894 83.842C8.0562 83.3376 6.97067 83.0743 5.86842 83.0753C4.38457 83.0753 3.67199 83.793 3.67199 84.625C3.67199 85.6446 4.51032 86.1014 6.47202 86.8844C9.1463 87.9285 10.4038 89.4048 10.4038 91.6642C10.4038 94.3559 8.45049 96.6642 4.30074 96.6642C2.80985 96.6764 1.33873 96.3319 0.016861 95.6609L0.68753 92.6593Z" fill="#005595"/>
<path d="M15.8361 81.5908V84.7556H18.284V87.4228H15.8361V91.6316C15.8361 93.0345 16.1463 93.6789 17.1858 93.6789C17.5241 93.6896 17.8624 93.6567 18.1918 93.5811V96.3217C17.4786 96.5647 16.7256 96.6781 15.9702 96.6561C15.4934 96.6716 15.0187 96.588 14.5778 96.4107C14.1368 96.2335 13.7398 95.9668 13.4133 95.6284C12.7846 94.9432 12.466 93.8257 12.466 92.1781V87.4228H11.0073V84.7556H12.466V82.5696L15.8361 81.5908Z" fill="#005595"/>
<path d="M28.956 93.5808C28.9403 94.5267 28.9936 95.4725 29.1152 96.4111H26.0469L25.8374 95.2447H25.7703C25.4018 95.7079 24.9252 96.0789 24.3799 96.3271C23.8347 96.5754 23.2365 96.6936 22.6349 96.6721C22.1571 96.677 21.6833 96.5871 21.2425 96.4077C20.8016 96.2283 20.403 95.9633 20.0711 95.6289C19.7391 95.2944 19.4808 94.8976 19.3119 94.4627C19.143 94.0278 19.0671 93.564 19.0888 93.0995C19.0888 90.0816 21.6457 88.6297 25.5272 88.6542V88.4829C25.5272 87.8712 25.217 86.9903 23.5319 86.9903C22.4671 87.0087 21.4283 87.3136 20.5307 87.8712L19.902 85.5384C21.2058 84.8345 22.6783 84.4798 24.1691 84.5106C27.8242 84.5106 28.9895 86.7945 28.9895 89.5351L28.956 93.5808ZM25.6026 90.9136C23.8086 90.9136 22.417 91.3377 22.417 92.7488C22.3972 92.929 22.4179 93.1111 22.4778 93.2827C22.5377 93.4542 22.6352 93.611 22.7637 93.7422C22.8921 93.8734 23.0484 93.9758 23.2216 94.0423C23.3948 94.1088 23.5808 94.1378 23.7667 94.1273C24.1781 94.1239 24.5769 93.9886 24.9012 93.7424C25.2256 93.4961 25.4574 93.1526 25.5607 92.7651C25.6094 92.5648 25.632 92.3592 25.6278 92.1534L25.6026 90.9136Z" fill="#005595"/>
<path d="M31.2028 88.466C31.2028 87.0142 31.2028 85.7825 31.1106 84.7548H33.9861L34.1454 86.329H34.2124C34.5473 85.7555 35.0364 85.2817 35.6272 84.9583C36.218 84.635 36.8882 84.4744 37.5658 84.4938C38.2152 84.4765 38.8539 84.6577 39.3922 85.0117C39.9305 85.3657 40.3413 85.8749 40.567 86.4677H40.6173C40.9801 85.9088 41.46 85.4308 42.0257 85.0647C42.6493 84.6802 43.375 84.4817 44.1131 84.4938C46.2257 84.4938 47.8186 86.068 47.8186 89.5427V96.3943H44.4652V90.0647C44.4652 88.3763 43.9455 87.3975 42.8473 87.3975C42.4796 87.4117 42.1269 87.5431 41.8436 87.7716C41.5603 88.0001 41.3621 88.3129 41.2796 88.6618C41.1888 88.961 41.1436 89.2715 41.1454 89.5835V96.3943H37.7921V89.869C37.7921 88.4008 37.2975 87.422 36.2161 87.422C35.8436 87.4501 35.4896 87.5911 35.2039 87.8252C34.9181 88.0593 34.715 88.3747 34.6232 88.727C34.5261 89.0192 34.4807 89.3254 34.4891 89.6324V96.4187H31.1357L31.2028 88.466Z" fill="#005595"/>
<path d="M50.4341 96.3951V87.4228H49.0341V84.7556H50.476V84.307C50.4092 82.8833 50.904 81.4885 51.8593 80.4081C52.2609 80.0284 52.7359 79.7298 53.2568 79.5297C53.7776 79.3295 54.3341 79.2316 54.894 79.2417C55.5066 79.2281 56.1176 79.3079 56.7048 79.4782L56.5791 82.2597C56.2222 82.1453 55.8481 82.0902 55.4725 82.0965C54.3575 82.0965 53.8797 83.0182 53.8797 84.1602V84.7556H56.0845V87.4228H53.9048V96.3951H50.4341Z" fill="#005595"/>
<path d="M67.863 90.4403C67.863 94.7062 65.0127 96.6556 62.0786 96.6556C58.8677 96.6556 56.3947 94.4126 56.3947 90.6606C56.3947 86.9085 58.7336 84.4941 62.263 84.4941C65.6163 84.4941 67.8714 86.9411 67.8714 90.4403H67.863ZM59.9324 90.5627C59.9324 92.561 60.7121 94.0618 62.1708 94.0618C63.4953 94.0618 64.3504 92.6589 64.3504 90.5627C64.3504 88.8253 63.7217 87.0635 62.1708 87.0635C60.6199 87.0635 59.9324 88.8498 59.9324 90.5627Z" fill="#005595"/>
<path d="M69.523 88.5889C69.523 86.876 69.481 85.7586 69.4307 84.7553H72.3733L72.4823 86.9005H72.5745C72.743 86.2466 73.1203 85.6615 73.6519 85.2291C74.1836 84.7968 74.8424 84.5395 75.5338 84.4943C75.7752 84.4838 76.0172 84.5002 76.2548 84.5432V87.969C75.955 87.8864 75.6441 87.848 75.3326 87.8548C74.78 87.8221 74.2347 87.9912 73.8036 88.3292C73.3725 88.6672 73.0867 89.1496 73.002 89.6819C72.9563 89.9515 72.9339 90.2243 72.935 90.4976V96.4029H69.523V88.5889Z" fill="#005595"/>
<path d="M88.0585 79.5029V92.9206C88.0585 94.2256 88.1004 95.6041 88.1423 96.3953H85.0824L84.9231 94.6824H84.8812C84.5553 95.2912 84.0605 95.7989 83.4529 96.1478C82.8453 96.4967 82.1494 96.6729 81.4441 96.6563C78.8452 96.6563 76.7578 94.299 76.7578 90.6857C76.7578 86.7542 79.0464 84.4948 81.6704 84.4948C82.2282 84.4501 82.7884 84.5478 83.2956 84.7781C83.8028 85.0084 84.2395 85.3634 84.5627 85.808H84.613V79.5029H88.0585ZM84.6465 89.6824C84.6419 89.4669 84.6251 89.2517 84.5962 89.038C84.5316 88.5607 84.2961 88.1207 83.9312 87.7955C83.5663 87.4703 83.0953 87.2807 82.601 87.2599C81.0584 87.2599 80.2452 88.7281 80.2452 90.5633C80.2452 92.5372 81.1674 93.777 82.5842 93.777C83.071 93.7617 83.5363 93.5786 83.8972 93.2603C84.258 92.9421 84.4909 92.5095 84.5543 92.0396C84.6194 91.7725 84.6504 91.4985 84.6465 91.224V89.6824Z" fill="#005595"/>
<path d="M94.7652 80.5302C96.0023 80.3183 97.2564 80.2145 98.5125 80.2203C100.051 80.1079 101.573 80.585 102.754 81.5498C103.199 81.9924 103.545 82.5191 103.771 83.0972C103.997 83.6752 104.099 84.2923 104.071 84.9103C104.137 86.154 103.721 87.3767 102.905 88.3361C102.079 89.0626 101.088 89.5891 100.013 89.8725C98.9376 90.156 97.8089 90.1885 96.7185 89.9674V96.3948H94.7652V80.5302ZM96.7185 88.2627C97.2447 88.3891 97.7864 88.444 98.3281 88.4258C100.684 88.4258 102.126 87.2186 102.126 85.0082C102.126 82.7977 100.709 81.8597 98.5544 81.8597C97.9375 81.8408 97.3205 81.8984 96.7185 82.031V88.2627Z" fill="#005595"/>
<path d="M114.709 93.2548C114.709 94.4375 114.709 95.4897 114.801 96.3951H113.049L112.94 94.5109H112.89C112.552 95.1549 112.039 95.6958 111.406 96.0743C110.773 96.4527 110.045 96.654 109.302 96.6561C107.625 96.6561 105.554 95.6528 105.554 91.6071V84.8779H107.525V91.2564C107.525 93.4424 108.153 94.9187 109.956 94.9187C110.536 94.8923 111.095 94.696 111.558 94.3554C112.022 94.0148 112.369 93.5459 112.554 93.0101C112.677 92.6691 112.742 92.311 112.747 91.9497V84.8861H114.726L114.709 93.2548Z" fill="#005595"/>
<path d="M117.308 79.5029H119.261V86.7297H119.311C119.655 86.0698 120.186 85.5199 120.841 85.1453C121.497 84.7708 122.249 84.5875 123.008 84.6171C125.7 84.6171 127.611 86.9907 127.586 90.4899C127.586 94.609 125.138 96.6563 122.715 96.6563C121.957 96.6881 121.206 96.4985 120.559 96.1119C119.912 95.7253 119.399 95.1593 119.085 94.4866H119.018L118.926 96.3953H117.249C117.291 95.5796 117.333 94.4377 117.333 93.4181L117.308 79.5029ZM119.261 91.7786C119.27 92.0336 119.301 92.2873 119.353 92.5372C119.488 93.2112 119.854 93.8206 120.392 94.2653C120.93 94.71 121.607 94.9635 122.313 94.9842C124.375 94.9842 125.616 93.1979 125.616 90.5551C125.616 88.2468 124.492 86.2729 122.38 86.2729C121.654 86.3105 120.963 86.5843 120.417 87.0503C119.872 87.5164 119.503 88.1475 119.37 88.8423C119.307 89.1239 119.27 89.4106 119.261 89.6987V91.7786Z" fill="#005595"/>
<path d="M131.383 79.5029H129.405V96.3953H131.383V79.5029Z" fill="#005595"/>
<path d="M136.221 81.639C136.236 81.8058 136.215 81.9739 136.159 82.1322C136.103 82.2904 136.013 82.4353 135.894 82.5571C135.776 82.6789 135.633 82.775 135.474 82.8389C135.315 82.9028 135.144 82.9331 134.972 82.9278C134.805 82.9227 134.642 82.885 134.491 82.8167C134.34 82.7485 134.205 82.6513 134.093 82.5308C133.982 82.4104 133.897 82.2693 133.843 82.116C133.79 81.9628 133.769 81.8005 133.781 81.639C133.77 81.4737 133.793 81.3078 133.85 81.1514C133.906 80.9951 133.995 80.8516 134.11 80.7295C134.225 80.6075 134.365 80.5095 134.52 80.4415C134.675 80.3735 134.843 80.3369 135.013 80.334C135.183 80.3355 135.351 80.3713 135.505 80.4392C135.66 80.507 135.799 80.6054 135.912 80.7281C136.026 80.8509 136.112 80.9952 136.165 81.152C136.218 81.3088 136.237 81.4747 136.221 81.639ZM134.024 84.9017H136.003V96.4188H134.024V84.9017Z" fill="#005595"/>
<path d="M146.339 95.9623C145.373 96.4347 144.303 96.6726 143.221 96.6555C139.951 96.6555 137.814 94.2738 137.814 90.7502C137.814 87.2265 140.102 84.6409 143.682 84.6409C144.63 84.6323 145.568 84.836 146.423 85.2363L145.971 86.8676C145.276 86.4796 144.482 86.2902 143.682 86.3211C141.167 86.3211 139.851 88.2706 139.851 90.6768C139.851 93.3358 141.46 94.9835 143.615 94.9835C144.458 94.9855 145.289 94.7897 146.038 94.4125L146.339 95.9623Z" fill="#005595"/>
<path d="M151.864 93.8739C152.904 94.5371 154.116 94.8992 155.36 94.918C157.355 94.918 158.529 93.8005 158.529 92.1773C158.529 90.6847 157.69 89.8282 155.678 88.9963C153.205 88.0664 151.679 86.7124 151.679 84.4449C151.679 81.9489 153.633 80.0974 156.567 80.0974C157.741 80.0639 158.901 80.3461 159.92 80.9131L159.384 82.6015C158.515 82.1036 157.525 81.8416 156.517 81.8429C154.446 81.8429 153.666 83.148 153.666 84.2409C153.666 85.7418 154.588 86.4759 156.668 87.3323C159.224 88.3845 160.532 89.6896 160.532 92.0468C160.532 94.4041 158.805 96.6879 155.234 96.6879C153.873 96.6942 152.537 96.3297 151.378 95.6357L151.864 93.8739Z" fill="#005595"/>
<path d="M170.324 95.9623C169.357 96.4348 168.287 96.6727 167.205 96.6556C163.928 96.6556 161.798 94.2739 161.798 90.7502C161.798 87.2266 164.087 84.641 167.666 84.641C168.613 84.6312 169.548 84.835 170.399 85.2364L169.955 86.8677C169.26 86.4809 168.467 86.2916 167.666 86.3212C165.151 86.3212 163.827 88.2706 163.827 90.6768C163.827 93.3359 165.445 94.9835 167.599 94.9835C168.442 94.9856 169.274 94.7897 170.022 94.4126L170.324 95.9623Z" fill="#005595"/>
<path d="M171.959 79.5029H173.946V86.6889C174.272 86.0815 174.762 85.5713 175.362 85.2126C175.965 84.8331 176.665 84.6267 177.383 84.6171C178.842 84.6171 181.172 85.5715 181.172 89.5111V96.3627H179.202V89.7476C179.202 87.8879 178.548 86.3219 176.687 86.3219C176.074 86.3495 175.487 86.567 175.01 86.9427C174.533 87.3184 174.193 87.8325 174.038 88.41C173.932 88.7338 173.886 89.0737 173.904 89.4132V96.3627H171.925L171.959 79.5029Z" fill="#005595"/>
<path d="M193.571 90.5389C193.571 94.7966 190.788 96.6563 188.164 96.6563C185.221 96.6563 182.958 94.3725 182.958 90.7346C182.958 86.8766 185.339 84.6172 188.34 84.6172C191.341 84.6172 193.571 87.0152 193.571 90.5389ZM184.953 90.6612C184.953 93.1816 186.319 95.0821 188.248 95.0821C190.176 95.0821 191.551 93.2061 191.551 90.6123C191.551 88.6628 190.628 86.1832 188.298 86.1832C185.967 86.1832 184.945 88.4671 184.945 90.6612" fill="#005595"/>
<path d="M205.215 90.5389C205.215 94.7966 202.432 96.6563 199.808 96.6563C196.866 96.6563 194.602 94.3725 194.602 90.7346C194.602 86.8766 196.983 84.6172 199.984 84.6172C202.985 84.6172 205.215 87.0152 205.215 90.5389ZM196.597 90.6612C196.597 93.1816 197.964 95.0821 199.892 95.0821C201.82 95.0821 203.195 93.2061 203.195 90.6123C203.195 88.6628 202.273 86.1832 199.942 86.1832C197.612 86.1832 196.589 88.4671 196.589 90.6612" fill="#005595"/>
<path d="M209.013 79.5029H207.035V96.3953H209.013V79.5029Z" fill="#005595"/>
<path d="M211.386 94.2499C212.153 94.7602 213.055 95.0435 213.984 95.0655C215.418 95.0655 216.097 94.307 216.097 93.3526C216.097 92.3983 215.535 91.8111 214.077 91.2401C212.123 90.4978 211.201 89.3559 211.201 87.9774C211.2 87.5104 211.298 87.0481 211.489 86.6198C211.681 86.1915 211.961 85.8066 212.313 85.4892C212.666 85.1718 213.082 84.929 213.535 84.7761C213.989 84.6231 214.47 84.5634 214.949 84.6006C215.89 84.5956 216.814 84.841 217.623 85.3102L217.128 86.8355C216.472 86.4029 215.699 86.1701 214.907 86.1667C214.68 86.1477 214.451 86.174 214.235 86.2439C214.019 86.3137 213.819 86.4257 213.649 86.5731C213.479 86.7204 213.341 86.8999 213.245 87.1007C213.148 87.3015 213.095 87.5193 213.087 87.7409C213.087 88.6871 213.741 89.1194 215.15 89.6903C217.036 90.4489 218 91.4521 218 93.165C218 95.1879 216.525 96.6398 213.934 96.6398C212.861 96.6502 211.807 96.3676 210.891 95.8241L211.386 94.2499Z" fill="#005595"/>
<path d="M23.3308 116.297H20.2458V118.638H23.6913V119.828H18.7451V111.859H23.5153V113.05H20.2458V115.114H23.3308V116.297Z" fill="#5C8727"/>
<path d="M18.7032 111.819V119.87H23.7332V118.598H20.2793V116.33H23.3643V115.074H20.2793V113.092H23.5488V111.819H18.7032ZM23.4649 111.893V113.01H20.1954V115.147H23.2889V116.257H20.1954V118.704H23.6494V119.821H18.7786V111.925L23.4649 111.893Z" fill="#5C8727"/>
<path d="M31.2111 119.828L30.3309 118.246C29.9704 117.626 29.744 117.202 29.4925 116.745C29.2997 117.202 29.0818 117.626 28.7548 118.246L27.9165 119.828H26.2398L28.671 115.799L26.3404 111.859H28.0171L28.9057 113.491C29.174 113.988 29.3668 114.38 29.5848 114.828C29.8027 114.331 29.9704 114.013 30.2303 113.491L31.0686 111.859H32.7872L30.3895 115.75L32.9045 119.828H31.2111Z" fill="#5C8727"/>
<path d="M31.1021 111.819L30.2218 113.451L29.6015 114.739L28.914 113.483L28.017 111.852H26.2314C26.2314 111.852 28.5703 115.792 28.5955 115.824L26.1391 119.903H27.9499L28.7883 118.271C29.1152 117.651 29.3248 117.252 29.5092 116.819C29.5931 116.95 30.3476 118.271 30.3476 118.271L31.2446 119.903H33.0638C33.0638 119.903 30.5488 115.824 30.5488 115.783C30.5488 115.743 32.9632 111.852 32.9632 111.852L31.1021 111.819ZM32.7787 111.893C32.7117 112.015 30.4146 115.751 30.4146 115.751L32.8793 119.788H31.2446C31.2446 119.748 30.4063 118.222 30.4063 118.222L29.5679 116.705H29.4841C29.2913 117.154 29.0817 117.562 28.738 118.206L27.8996 119.764H26.2733C26.3487 119.65 28.6877 115.775 28.6877 115.775L26.399 111.893H28.017L28.8553 113.524L29.5679 114.935L29.635 114.862L30.2721 113.524C30.2721 113.524 31.1105 111.95 31.1105 111.893H32.7787Z" fill="#5C8727"/>
<path d="M41.3297 119.592C40.6603 119.859 39.9401 119.984 39.2171 119.959C38.6597 120.005 38.0987 119.933 37.5726 119.748C37.0465 119.563 36.5679 119.27 36.1695 118.888C35.7712 118.505 35.4627 118.044 35.2652 117.535C35.0677 117.026 34.9859 116.481 35.0255 115.938C34.9946 115.373 35.0871 114.808 35.2969 114.281C35.5066 113.753 35.8287 113.275 36.2422 112.877C36.6556 112.48 37.1509 112.172 37.6954 111.974C38.24 111.776 38.8214 111.693 39.4016 111.729C40.0848 111.705 40.7654 111.825 41.3968 112.08L41.0698 113.238C40.5597 113.033 40.0122 112.93 39.4602 112.936C39.0654 112.914 38.6702 112.976 38.3023 113.117C37.9343 113.258 37.6024 113.476 37.3296 113.754C37.0567 114.033 36.8495 114.366 36.7224 114.73C36.5952 115.095 36.5511 115.482 36.5931 115.864C36.5532 116.244 36.5988 116.627 36.7269 116.987C36.855 117.348 37.0624 117.676 37.3347 117.951C37.607 118.225 37.9375 118.438 38.3032 118.575C38.6688 118.712 39.0609 118.769 39.4519 118.744C40.0092 118.749 40.5621 118.647 41.0782 118.442L41.3297 119.592Z" fill="#5C8727"/>
<path d="M34.992 115.938C34.9549 116.483 35.038 117.029 35.2355 117.54C35.4331 118.052 35.7406 118.516 36.1374 118.902C36.5343 119.288 37.0114 119.587 37.5368 119.779C38.0621 119.972 38.6236 120.052 39.1836 120.016C39.9129 120.042 40.6392 119.914 41.313 119.641L41.0531 118.418H41.0112C40.5003 118.619 39.9529 118.719 39.4016 118.711C39.0165 118.736 38.6305 118.678 38.2706 118.543C37.9106 118.407 37.5853 118.197 37.3172 117.927C37.0491 117.657 36.8448 117.333 36.7183 116.978C36.5918 116.624 36.5463 116.246 36.5848 115.873C36.5443 115.495 36.5883 115.114 36.7139 114.755C36.8394 114.396 37.0434 114.067 37.3119 113.792C37.5804 113.517 37.9069 113.301 38.2691 113.161C38.6313 113.02 39.0206 112.957 39.41 112.977C39.9573 112.972 40.4997 113.078 41.0028 113.287L41.3465 112.055C40.7098 111.798 40.0238 111.675 39.3345 111.697C38.7502 111.665 38.1656 111.753 37.6184 111.955C37.0712 112.157 36.5735 112.468 36.1573 112.868C35.7411 113.269 35.4157 113.749 35.202 114.28C34.9883 114.81 34.8911 115.377 34.9165 115.946L34.992 115.938ZM35.0004 115.946C34.9695 115.387 35.0609 114.827 35.2685 114.305C35.4761 113.782 35.7952 113.308 36.2047 112.914C36.6143 112.521 37.1049 112.216 37.6444 112.02C38.1839 111.824 38.7599 111.742 39.3345 111.778C39.9996 111.758 40.6618 111.872 41.2795 112.113L40.9693 113.197C40.4697 112.997 39.9336 112.897 39.3932 112.904C38.9929 112.882 38.5923 112.944 38.2193 113.088C37.8463 113.231 37.5098 113.451 37.2331 113.734C36.9564 114.016 36.7461 114.354 36.6168 114.723C36.4875 115.092 36.4422 115.485 36.4842 115.873C36.4456 116.257 36.4934 116.644 36.6242 117.009C36.755 117.373 36.9657 117.705 37.2417 117.982C37.5177 118.259 37.8524 118.474 38.2224 118.613C38.5925 118.752 38.9892 118.81 39.3849 118.785C39.9291 118.792 40.4698 118.698 40.9777 118.507C40.9777 118.589 41.1957 119.519 41.204 119.576C40.549 119.831 39.8467 119.95 39.1417 119.927C38.5899 119.974 38.034 119.905 37.5126 119.722C36.9913 119.54 36.5171 119.249 36.1229 118.87C35.7288 118.491 35.4242 118.034 35.2303 117.529C35.0365 117.024 34.958 116.484 35.0004 115.946Z" fill="#5C8727"/>
<path d="M49.0173 116.297H45.9323V118.638H49.3778V119.828H44.4316V111.859H49.2017V113.05H45.9323V115.114H49.0173V116.297Z" fill="#5C8727"/>
<path d="M44.3897 111.819V119.87H49.4197V118.598H45.9658V116.33H49.0341V115.074H45.949V113.092H49.2185V111.819H44.3897ZM49.1514 111.893V113.01H45.8819V115.147H48.9754V116.257H45.8819V118.704H49.3359V119.821H44.4652V111.925L49.1514 111.893Z" fill="#5C8727"/>
<path d="M52.5216 111.859H54.0138V118.613H57.3755V119.828H52.5216V111.859Z" fill="#5C8727"/>
<path d="M52.4713 111.819V119.87H57.4174V118.573H54.0641V111.819H52.4713ZM53.9719 111.893V118.646H57.3252V119.788H52.5467V111.893H53.9719Z" fill="#5C8727"/>
<path d="M60.3348 111.859H61.827V118.613H65.1971V119.828H60.3348V111.859Z" fill="#5C8727"/>
<path d="M60.2928 111.819V119.87H65.2306V118.573H61.8773V111.819H60.2928ZM61.7851 111.893V118.646H65.1384V119.788H60.3515V111.893H61.7851Z" fill="#5C8727"/>
<path d="M72.7338 116.297H69.6487V118.638H73.0943V119.828H68.1481V111.859H72.9182V113.05H69.6487V115.114H72.7338V116.297Z" fill="#5C8727"/>
<path d="M68.1062 111.819V119.87H73.1361V118.598H69.6822V116.33H72.7673V115.074H69.6822V113.092H72.9517V111.819H68.1062ZM72.8679 111.893V113.01H69.5984V115.147H72.6918V116.257H69.5984V118.704H73.0523V119.821H68.19V111.925L72.8679 111.893Z" fill="#5C8727"/>
<path d="M76.2295 119.828V111.859H77.9062L80.0523 115.277C80.5849 116.135 81.0528 117.029 81.4523 117.952C81.3517 116.884 81.3182 115.856 81.3182 114.633V111.859H82.7014V119.828H81.1589L79.0212 116.313C78.4778 115.428 77.9879 114.513 77.5541 113.572H77.5373C77.6044 114.608 77.6128 115.66 77.6128 116.974V119.82L76.2295 119.828Z" fill="#5C8727"/>
<path d="M81.2931 111.819V114.633C81.2931 115.857 81.2931 116.836 81.4189 117.798C81.0285 116.924 80.5833 116.074 80.0859 115.253L77.9566 111.819H76.1877V119.87H77.6464V116.982C77.6464 115.694 77.6464 114.682 77.5793 113.679C78.0028 114.591 78.4786 115.478 79.0045 116.338L81.159 119.87H82.7602V111.819H81.2931ZM82.6848 111.893V119.788H81.2009L79.0715 116.297C78.5252 115.414 78.0352 114.499 77.6045 113.557H77.5039C77.5625 114.584 77.5709 115.612 77.5709 116.95V119.756H76.2799V111.86H77.9147L80.0189 115.261C80.5484 116.118 81.0162 117.009 81.4189 117.929H81.5195C81.4273 116.917 81.3854 115.898 81.3854 114.617V111.876L82.6848 111.893ZM77.5374 113.589H77.4955H77.5374Z" fill="#5C8727"/>
<path d="M92.1411 119.592C91.4717 119.859 90.7515 119.984 90.0285 119.959C89.4715 120.004 88.9111 119.931 88.3856 119.745C87.8602 119.56 87.3821 119.266 86.9841 118.885C86.5861 118.503 86.2775 118.042 86.0795 117.533C85.8815 117.025 85.7987 116.48 85.8369 115.938C85.806 115.373 85.8985 114.808 86.1082 114.281C86.318 113.753 86.6401 113.275 87.0535 112.877C87.467 112.48 87.9623 112.172 88.5068 111.974C89.0514 111.776 89.6329 111.693 90.213 111.729C90.8964 111.703 91.5774 111.823 92.2082 112.08L91.8812 113.238C91.3714 113.032 90.8237 112.929 90.2716 112.936C89.8768 112.914 89.4816 112.976 89.1137 113.117C88.7457 113.258 88.4138 113.476 88.141 113.754C87.8681 114.033 87.6609 114.366 87.5338 114.73C87.4066 115.095 87.3625 115.482 87.4045 115.864C87.3646 116.244 87.4103 116.627 87.5383 116.987C87.6664 117.348 87.8738 117.676 88.1461 117.951C88.4183 118.225 88.7489 118.438 89.1146 118.575C89.4803 118.712 89.8723 118.769 90.2633 118.744C90.8208 118.752 91.3742 118.649 91.8896 118.442L92.1411 119.592Z" fill="#5C8727"/>
<path d="M85.8033 115.938C85.7663 116.483 85.8493 117.029 86.0469 117.54C86.2444 118.052 86.5519 118.516 86.9488 118.902C87.3457 119.288 87.8228 119.587 88.3481 119.779C88.8735 119.972 89.4349 120.052 89.995 120.016C90.727 120.041 91.4559 119.913 92.1328 119.641L91.8729 118.418H91.8226C91.3117 118.619 90.7643 118.719 90.213 118.711C89.8278 118.736 89.4419 118.678 89.0819 118.543C88.722 118.407 88.3966 118.197 88.1286 117.927C87.8605 117.657 87.6561 117.333 87.5296 116.978C87.4032 116.624 87.3576 116.246 87.3962 115.873C87.3557 115.495 87.3997 115.114 87.5252 114.755C87.6507 114.396 87.8548 114.067 88.1232 113.792C88.3917 113.517 88.7183 113.301 89.0805 113.161C89.4427 113.02 89.8319 112.957 90.2214 112.977C90.7687 112.971 91.3114 113.077 91.8142 113.287L92.1663 112.055C91.5299 111.797 90.8436 111.674 90.1543 111.697C89.5699 111.665 88.9854 111.753 88.4381 111.955C87.8909 112.157 87.3932 112.468 86.977 112.868C86.5609 113.269 86.2355 113.749 86.0218 114.28C85.8081 114.81 85.7108 115.377 85.7363 115.946L85.8033 115.938ZM85.8201 115.946C85.7906 115.387 85.8829 114.828 86.091 114.306C86.2991 113.784 86.6182 113.311 87.0274 112.917C87.4367 112.524 87.9268 112.219 88.4657 112.023C89.0046 111.826 89.58 111.743 90.1543 111.778C90.8194 111.758 91.4816 111.872 92.0992 112.113C92.0992 112.17 91.8142 113.132 91.789 113.197C91.2897 112.996 90.7534 112.896 90.213 112.904C89.8126 112.882 89.412 112.944 89.039 113.088C88.6661 113.231 88.3295 113.451 88.0528 113.734C87.7761 114.016 87.5658 114.354 87.4365 114.723C87.3072 115.092 87.262 115.485 87.3039 115.873C87.2654 116.257 87.3132 116.644 87.444 117.009C87.5748 117.373 87.7855 117.705 88.0615 117.982C88.3374 118.259 88.6721 118.474 89.0422 118.613C89.4123 118.752 89.8089 118.81 90.2046 118.785C90.7515 118.791 91.2948 118.697 91.8058 118.507C91.8058 118.589 92.0154 119.519 92.0322 119.576C91.3739 119.829 90.6691 119.949 89.9615 119.927C89.4096 119.974 88.8537 119.905 88.3324 119.722C87.811 119.54 87.3368 119.249 86.9427 118.87C86.5485 118.491 86.2439 118.034 86.0501 117.529C85.8562 117.024 85.7777 116.484 85.8201 115.946Z" fill="#5C8727"/>
<path d="M99.8286 116.297H96.7435V118.638H100.197V119.828H95.2429V111.859H100.013V113.05H96.7435V115.114H99.8286V116.297Z" fill="#5C8727"/>
<path d="M95.201 111.819V119.87H100.231V118.598H96.819V116.33H99.9125V115.074H96.819V113.092H100.088V111.819H95.201ZM99.9711 111.893V113.01H96.7016V115.147H99.7867V116.257H96.7016V118.704H100.172V119.821H95.3016V111.925L99.9711 111.893Z" fill="#5C8727"/>
<path d="M109.159 111.859H107.667V119.828H109.159V111.859Z" fill="#5C8727"/>
<path d="M107.625 119.87H109.201V111.819H107.625V119.87ZM109.126 119.788H107.717V111.893H109.134L109.126 119.788Z" fill="#5C8727"/>
<path d="M112.664 118.246C113.27 118.571 113.95 118.745 114.642 118.752C115.606 118.752 116.143 118.312 116.143 117.667C116.143 117.023 115.723 116.705 114.684 116.338C113.334 115.865 112.471 115.171 112.471 114.021C112.471 112.716 113.586 111.729 115.363 111.729C116.043 111.711 116.717 111.848 117.333 112.129L116.964 113.303C116.463 113.047 115.904 112.915 115.338 112.92C114.391 112.92 113.98 113.418 113.98 113.883C113.98 114.494 114.449 114.78 115.547 115.196C116.964 115.718 117.66 116.411 117.66 117.561C117.66 118.834 116.662 119.959 114.55 119.959C113.781 119.963 113.023 119.79 112.337 119.453L112.664 118.246Z" fill="#5C8727"/>
<path d="M112.429 114.021C112.429 115.09 113.141 115.84 114.667 116.378C115.715 116.745 116.101 117.096 116.101 117.667C116.101 118.238 115.556 118.711 114.642 118.711C113.956 118.704 113.283 118.533 112.68 118.214H112.638L112.286 119.502C112.981 119.842 113.747 120.018 114.525 120.016C116.847 120.016 117.677 118.703 117.677 117.569C117.677 116.436 117.015 115.71 115.531 115.163C114.466 114.763 113.988 114.478 113.988 113.891C113.988 113.434 114.399 112.969 115.313 112.969C115.873 112.965 116.425 113.093 116.922 113.344H116.964L117.35 112.104C116.731 111.815 116.049 111.675 115.363 111.697C113.636 111.697 112.429 112.659 112.429 114.029V114.021ZM116.185 117.675C116.185 117.055 115.774 116.688 114.692 116.313C113.2 115.791 112.513 115.065 112.513 114.029C112.513 112.7 113.678 111.778 115.363 111.778C116.025 111.759 116.682 111.89 117.283 112.161L116.939 113.254C116.444 113.007 115.894 112.881 115.338 112.887C114.374 112.887 113.938 113.409 113.938 113.891C113.938 114.527 114.432 114.82 115.531 115.236C116.998 115.775 117.618 116.468 117.618 117.569C117.618 118.67 116.78 119.927 114.55 119.927C113.797 119.928 113.054 119.76 112.379 119.437C112.379 119.38 112.664 118.393 112.689 118.312C113.291 118.624 113.96 118.791 114.642 118.801C115.589 118.801 116.185 118.369 116.185 117.675Z" fill="#5C8727"/>
<path d="M126.261 113.075H123.922V111.859H130.109V113.075H127.754V119.828H126.261V113.075Z" fill="#5C8727"/>
<path d="M123.88 111.819V113.157H126.211V119.911H127.787V113.157H130.151V111.86L123.88 111.819ZM130.067 111.893V113.035H127.712V119.788H126.295V113.035H123.956V111.893H130.067Z" fill="#5C8727"/>
<path d="M134.393 111.859V115.057H137.855V111.859H139.348V119.828H137.855V116.321H134.393V119.828H132.893V111.859H134.393Z" fill="#5C8727"/>
<path d="M137.814 111.819V115.009H134.46V111.819H132.867V119.87H134.443V116.354H137.797V119.87H139.373V111.819H137.814ZM139.306 111.893V119.788H137.897V116.281H134.36V119.788H132.943V111.893H134.36V115.09H137.897V111.893H139.306Z" fill="#5C8727"/>
<path d="M147.471 116.297H144.386V118.638H147.832V119.828H142.885V111.859H147.655V113.05H144.386V115.114H147.471V116.297Z" fill="#5C8727"/>
<path d="M142.844 111.819V119.87H147.873V118.598H144.42V116.33H147.505V115.074H144.42V113.092H147.689V111.819H142.844ZM147.605 111.893V113.01H144.336V115.147H147.429V116.257H144.336V118.704H147.79V119.821H142.927V111.925L147.605 111.893Z" fill="#5C8727"/>
<path d="M155.309 111.966C156.063 111.841 156.826 111.784 157.59 111.794C158.451 111.731 159.307 111.962 160.012 112.447C160.278 112.662 160.491 112.931 160.636 113.236C160.781 113.541 160.854 113.873 160.851 114.209C160.869 114.542 160.814 114.876 160.692 115.188C160.569 115.5 160.38 115.783 160.138 116.02C159.421 116.61 158.493 116.903 157.556 116.835C157.312 116.841 157.068 116.827 156.827 116.794V119.796H155.343L155.309 111.966ZM156.793 115.677C157.033 115.725 157.278 115.744 157.523 115.734C158.638 115.734 159.317 115.204 159.317 114.266C159.317 113.328 158.688 112.912 157.64 112.912C157.359 112.905 157.077 112.93 156.802 112.985L156.793 115.677Z" fill="#5C8727"/>
<path d="M155.301 111.925V119.861H156.86V116.86C157.091 116.889 157.324 116.903 157.556 116.9C158.51 116.958 159.448 116.65 160.172 116.044C160.417 115.802 160.608 115.514 160.732 115.196C160.856 114.879 160.911 114.54 160.893 114.201C160.898 113.861 160.825 113.525 160.68 113.216C160.535 112.907 160.322 112.633 160.054 112.414C159.343 111.923 158.477 111.689 157.607 111.754C156.84 111.741 156.074 111.795 155.318 111.917L155.301 111.925ZM157.607 111.827C158.458 111.765 159.306 111.993 160.004 112.471C160.259 112.685 160.462 112.951 160.598 113.25C160.734 113.549 160.801 113.874 160.792 114.201C160.808 114.529 160.755 114.857 160.635 115.164C160.515 115.471 160.332 115.751 160.096 115.987C159.396 116.561 158.496 116.853 157.581 116.803C157.34 116.808 157.099 116.792 156.86 116.754H156.81V119.763H155.402V111.974C156.145 111.857 156.896 111.803 157.648 111.811" fill="#5C8727"/>
<path d="M156.785 112.944V115.701C157.031 115.749 157.281 115.768 157.531 115.758C158.68 115.758 159.367 115.195 159.367 114.249C159.367 113.303 158.747 112.855 157.69 112.855C157.409 112.848 157.128 112.873 156.852 112.928L156.785 112.944ZM157.69 112.928C158.722 112.928 159.317 113.417 159.317 114.249C159.317 115.081 158.671 115.677 157.556 115.677C157.323 115.686 157.09 115.67 156.86 115.628V112.993C157.137 112.947 157.418 112.925 157.699 112.928" fill="#5C8727"/>
<path d="M171.196 115.759C171.196 118.434 169.519 119.959 167.272 119.959C165.026 119.959 163.5 118.246 163.5 115.881C163.5 113.515 165.084 111.713 167.39 111.713C169.695 111.713 171.196 113.475 171.196 115.742V115.759ZM165.084 115.865C165.084 117.496 165.923 118.785 167.356 118.785C168.79 118.785 169.611 117.471 169.611 115.807C169.611 114.299 168.849 112.871 167.356 112.871C165.864 112.871 165.084 114.217 165.084 115.865Z" fill="#5C8727"/>
<path d="M163.458 115.897C163.458 118.344 164.992 119.975 167.272 119.975C169.553 119.975 171.238 118.344 171.238 115.734C171.238 113.287 169.687 111.655 167.39 111.655C165.093 111.655 163.458 113.384 163.458 115.864V115.897ZM163.542 115.864C163.542 113.417 165.126 111.737 167.39 111.737C169.653 111.737 171.154 113.368 171.154 115.725C171.154 118.254 169.628 119.885 167.272 119.885C164.917 119.885 163.542 118.254 163.542 115.864Z" fill="#5C8727"/>
<path d="M165.043 115.881C165.043 117.626 165.99 118.842 167.356 118.842C168.723 118.842 169.653 117.626 169.653 115.824C169.653 114.388 168.932 112.847 167.356 112.847C165.973 112.847 165.043 114.062 165.043 115.881ZM165.118 115.881C165.118 114.413 165.814 112.928 167.356 112.928C168.899 112.928 169.578 114.429 169.578 115.824C169.578 117.578 168.681 118.76 167.356 118.76C166.032 118.76 165.118 117.602 165.118 115.881Z" fill="#5C8727"/>
<path d="M175.807 111.859H174.314V119.828H175.807V111.859Z" fill="#5C8727"/>
<path d="M174.273 119.87H175.84V111.819H174.273V119.87ZM175.765 119.788H174.348V111.893H175.765V119.788Z" fill="#5C8727"/>
<path d="M179.344 119.828V111.859H181.021L183.167 115.277C183.697 116.136 184.164 117.03 184.567 117.952C184.467 116.884 184.433 115.856 184.433 114.633V111.859H185.816V119.828H184.274L182.136 116.313C181.587 115.43 181.094 114.514 180.661 113.572C180.719 114.608 180.728 115.66 180.728 116.974V119.82L179.344 119.828Z" fill="#5C8727"/>
<path d="M184.408 111.819V114.633C184.408 115.849 184.408 116.836 184.525 117.798C184.138 116.923 183.693 116.073 183.192 115.253L181.063 111.819H179.303V119.87H180.753V116.982C180.753 115.686 180.753 114.682 180.686 113.679C181.109 114.591 181.585 115.478 182.111 116.338L184.265 119.87H185.875V111.819H184.408ZM185.791 111.893V119.788H184.307L182.186 116.297C181.641 115.412 181.148 114.497 180.711 113.557H180.61C180.669 114.584 180.686 115.612 180.686 116.95V119.756H179.386V111.86H181.063L183.167 115.261C183.691 116.12 184.156 117.011 184.559 117.929H184.659C184.567 116.917 184.525 115.898 184.525 114.617V111.876L185.791 111.893ZM180.652 113.589H180.61H180.652Z" fill="#5C8727"/>
<path d="M190.955 113.075H188.625V111.859H194.812V113.075H192.448V119.828H190.955V113.075Z" fill="#5C8727"/>
<path d="M188.575 111.819V113.157H190.905V119.911H192.481V113.157H194.845V111.86L188.575 111.819ZM194.761 111.893V113.035H192.389V119.788H190.972V113.035H188.642V111.893H194.761Z" fill="#5C8727"/>
<path d="M197.369 119.959C197.13 119.937 196.907 119.83 196.746 119.657C196.584 119.484 196.494 119.259 196.494 119.025C196.494 118.792 196.584 118.566 196.746 118.394C196.907 118.221 197.13 118.113 197.369 118.091C197.494 118.088 197.618 118.109 197.734 118.155C197.85 118.201 197.954 118.27 198.041 118.358C198.128 118.445 198.195 118.549 198.238 118.664C198.281 118.778 198.299 118.9 198.291 119.021C198.299 119.143 198.281 119.265 198.238 119.38C198.195 119.494 198.128 119.599 198.042 119.687C197.955 119.775 197.85 119.845 197.734 119.892C197.619 119.939 197.494 119.962 197.369 119.959Z" fill="#5C8727"/>
<path d="M196.421 119.021C196.412 119.147 196.43 119.273 196.473 119.393C196.517 119.512 196.585 119.621 196.674 119.713C196.763 119.804 196.871 119.878 196.99 119.927C197.11 119.976 197.239 120.001 197.369 120C197.569 120.008 197.768 119.957 197.938 119.855C198.109 119.752 198.245 119.603 198.327 119.425C198.41 119.247 198.436 119.049 198.402 118.856C198.368 118.664 198.276 118.486 198.137 118.345C197.998 118.204 197.819 118.106 197.623 118.065C197.427 118.024 197.222 118.041 197.036 118.113C196.85 118.186 196.69 118.311 196.577 118.473C196.465 118.635 196.405 118.826 196.405 119.021H196.421ZM196.48 119.021C196.468 118.899 196.484 118.776 196.527 118.661C196.57 118.546 196.639 118.442 196.73 118.357C196.82 118.271 196.929 118.207 197.048 118.168C197.167 118.129 197.294 118.117 197.419 118.132C197.647 118.153 197.859 118.256 198.014 118.422C198.168 118.587 198.253 118.802 198.253 119.025C198.253 119.248 198.168 119.463 198.014 119.628C197.859 119.794 197.647 119.897 197.419 119.918C197.301 119.919 197.185 119.895 197.077 119.849C196.97 119.803 196.873 119.736 196.794 119.651C196.715 119.567 196.655 119.467 196.619 119.358C196.582 119.25 196.569 119.135 196.581 119.021" fill="#5C8727"/>
</g>
<defs>
<clipPath id="clip0_4346_7615">
<rect width="218" height="120" fill="white"/>
</clipPath>
</defs>
</svg>
